HIERARCHY
ROOT Hips
{
	OFFSET 51.116199 -9.192845 95.675102
	CHANNELS 6 Xposition Yposition Zposition Xrotation Yrotation Zrotation
	JOINT spine
	{
		OFFSET 0.000000 -0.458069 7.965683
		CHANNELS 3 Xrotation Yrotation Zrotation
		JOINT spine1
		{
			OFFSET 0.000000 -0.000001 10.243103
			CHANNELS 3 Xrotation Yrotation Zrotation
			JOINT spine2
			{
				OFFSET 0.000000 -0.000002 9.814751
				CHANNELS 3 Xrotation Yrotation Zrotation
				JOINT Neck
				{
					OFFSET 0.000000 -1.201384 25.198608
					CHANNELS 3 Xrotation Yrotation Zrotation
					JOINT Head
					{
						OFFSET 0.000000 -0.000002 7.613144
						CHANNELS 3 Xrotation Yrotation Zrotation
						End Site
						{
							OFFSET 0.000000 6.077327 18.428101
						}
					}
				}
				JOINT RightShoulder
				{
					OFFSET -4.132702 0.575449 10.599197
					CHANNELS 3 Xrotation Yrotation Zrotation
					JOINT RightArm
					{
						OFFSET 0.000000 -0.000002 13.901794
						CHANNELS 3 Xrotation Yrotation Zrotation
						JOINT RightArmRoll
						{
							OFFSET 0.000000 -0.000002 7.017883
							CHANNELS 3 Xrotation Yrotation Zrotation
							JOINT RightForeArm
							{
								OFFSET 0.000000 -0.000003 20.440598
								CHANNELS 3 Xrotation Yrotation Zrotation
								JOINT RightForeArmRoll
								{
									OFFSET 0.000000 -0.000001 7.875153
									CHANNELS 3 Xrotation Yrotation Zrotation
									JOINT RightHand
									{
										OFFSET 0.000000 -0.000003 15.803696
										CHANNELS 3 Xrotation Yrotation Zrotation
										End Site
										{
											OFFSET 0.000000 0.000000 0.100006
										}
									}
								}
							}
						}
					}
				}
				JOINT LeftShoulder
				{
					OFFSET 4.132702 0.575449 10.599197
					CHANNELS 3 Xrotation Yrotation Zrotation
					JOINT LeftArm
					{
						OFFSET 0.000000 -0.000002 13.901794
						CHANNELS 3 Xrotation Yrotation Zrotation
						JOINT LeftArmRoll
						{
							OFFSET 0.000000 -0.000002 7.017883
							CHANNELS 3 Xrotation Yrotation Zrotation
							JOINT LeftForeArm
							{
								OFFSET 0.000000 -0.000003 20.440598
								CHANNELS 3 Xrotation Yrotation Zrotation
								JOINT LeftForeArmRoll
								{
									OFFSET 0.000000 -0.000001 7.875153
									CHANNELS 3 Xrotation Yrotation Zrotation
									JOINT LeftHand
									{
										OFFSET 0.000000 -0.000003 15.803696
										CHANNELS 3 Xrotation Yrotation Zrotation
										End Site
										{
											OFFSET 0.000000 0.000000 0.100006
										}
									}
								}
							}
						}
					}
				}
			}
		}
	}
	JOINT RightUpLeg
	{
		OFFSET -7.060471 1.086090 -1.294701
		CHANNELS 3 Xrotation Yrotation Zrotation
		JOINT RightUpLegRoll
		{
			OFFSET 0.000000 -0.000003 18.530800
			CHANNELS 3 Xrotation Yrotation Zrotation
			JOINT RightLeg
			{
				OFFSET 0.000000 0.000004 -22.947601
				CHANNELS 3 Xrotation Yrotation Zrotation
				JOINT RightLegRoll
				{
					OFFSET 0.000000 -0.000004 23.022598
					CHANNELS 3 Xrotation Yrotation Zrotation
					JOINT RightFoot
					{
						OFFSET 0.000000 -0.000004 19.162498
						CHANNELS 3 Xrotation Yrotation Zrotation
						JOINT RightToeBase
						{
							OFFSET 0.000000 -0.000002 16.018799
							CHANNELS 3 Xrotation Yrotation Zrotation
							End Site
							{
								OFFSET 0.006790 0.894205 7.757812
							}
						}
					}
				}
			}
		}
	}
	JOINT LeftUpLeg
	{
		OFFSET 7.060471 1.086090 -1.294701
		CHANNELS 3 Xrotation Yrotation Zrotation
		JOINT LeftUpLegRoll
		{
			OFFSET 0.000000 -0.000003 18.530899
			CHANNELS 3 Xrotation Yrotation Zrotation
			JOINT LeftLeg
			{
				OFFSET 0.000000 -0.000004 22.947495
				CHANNELS 3 Xrotation Yrotation Zrotation
				JOINT LeftLegRoll
				{
					OFFSET 0.000000 -0.000004 23.235504
					CHANNELS 3 Xrotation Yrotation Zrotation
					JOINT LeftFoot
					{
						OFFSET 0.000000 -0.000003 18.949600
						CHANNELS 3 Xrotation Yrotation Zrotation
						JOINT LeftToeBase
						{
							OFFSET 0.000000 -0.000003 16.018799
							CHANNELS 3 Xrotation Yrotation Zrotation
							End Site
							{
								OFFSET -0.030430 0.894206 7.757828
							}
						}
					}
				}
			}
		}
	}
}
MOTION
Frames: 8
Frame Time: 0.041667
51.480694 -8.858127 95.833809 -4.298196 0.746221 2.841074 -2.476147 -0.343009 0.197511 -0.948384 -0.672989 0.377271 0.696722 -0.668415 0.385304 33.936307 6.392980 -3.416898 -7.944602 -8.674375 -2.210496 4.069969 -52.886711 5.660462 -65.519983 -154.663801 -87.186470 0.000000 0.000001 -0.000003 95.003444 3.065639 -5.432971 -0.000001 0.000011 -3.009710 -5.000186 -7.999941 0.000028 -2.167281 60.048359 2.696463 -71.657222 159.234919 105.581535 0.000000 0.000001 0.000001 91.086419 -1.129545 6.227711 0.000000 -0.000003 3.004809 -5.000146 8.000100 -0.000012 5.243091 -177.563212 -2.836267 -179.999991 0.000005 -1.212996 175.843808 -1.815211 -0.564885 -0.000005 -0.000001 0.053977 69.446836 6.955329 1.967162 25.456943 -7.355613 0.000000 2.304025 172.512984 -0.773619 -0.000005 -0.000005 -1.139569 -5.769150 1.916879 0.353402 -0.000001 0.000004 -0.012847 69.188409 -6.526004 -3.069483 25.456947 7.355610 -0.000000 
51.474396 -8.856690 95.827797 -4.301593 0.744250 2.837920 -2.474846 -0.343009 0.196458 -0.945782 -0.672655 0.375036 0.699323 -0.668111 0.383065 33.929108 6.395201 -3.405233 -7.860817 -8.649688 -2.194014 4.120951 -52.922983 5.716150 -65.550364 -154.625593 -87.173226 0.000004 0.000001 0.000000 95.009625 3.066274 -5.430174 -0.000001 0.000011 -3.009712 -5.000185 -7.999939 0.000028 -2.169251 60.059732 2.699981 -71.707964 159.247937 105.602641 -0.000001 -0.000000 0.000004 91.057842 -1.120039 6.213342 0.000002 -0.000004 3.004811 -5.000146 8.000098 -0.000012 5.249318 -177.563253 -2.838411 -179.999991 0.000005 -1.212996 175.850679 -1.811248 -0.565376 -0.000004 -0.000001 0.053943 69.447150 6.955307 1.967037 25.456947 -7.355613 0.000000 2.314503 172.513052 -0.774567 -0.000005 -0.000004 -1.139560 -5.757865 1.917515 0.353341 -0.000002 0.000003 -0.012819 69.186429 -6.525003 -3.072216 25.456945 7.355613 -0.000001 
51.473297 -8.854056 95.840103 -4.304590 0.742443 2.834233 -2.473504 -0.343012 0.195517 -0.943122 -0.672600 0.373038 0.701983 -0.668082 0.381069 33.921592 6.399908 -3.394105 -7.782236 -8.629416 -2.177970 4.166917 -52.955304 5.766377 -65.582595 -154.588163 -87.162817 0.000001 -0.000001 0.000000 95.014939 3.066405 -5.427315 0.000000 0.000012 -3.009711 -5.000185 -7.999938 0.000027 -2.177059 60.071111 2.710298 -71.765679 159.262021 105.637208 -0.000000 0.000001 0.000000 91.030480 -1.110445 6.201994 0.000000 -0.000005 3.004810 -5.000147 8.000099 -0.000013 5.253893 -177.563267 -2.840198 -179.999991 0.000005 -1.212996 175.856075 -1.808263 -0.564988 -0.000005 -0.000001 0.053910 69.447581 6.955326 1.966913 25.456943 -7.355612 0.000000 2.323100 172.513093 -0.775151 -0.000005 -0.000005 -1.139530 -5.748682 1.917952 0.353313 -0.000001 0.000004 -0.012790 69.184871 -6.524034 -3.074728 25.456945 7.355613 -0.000000 
51.484501 -8.855407 95.835609 -4.306979 0.740839 2.830013 -2.472196 -0.343021 0.194693 -0.940498 -0.672858 0.371295 0.704608 -0.668362 0.379328 33.914089 6.407445 -3.383610 -7.710377 -8.614113 -2.162465 4.206716 -52.983024 5.809898 -65.617566 -154.551471 -87.156950 0.000003 -0.000001 0.000001 95.019543 3.065980 -5.426426 -0.000000 0.000015 -3.009711 -5.000183 -7.999943 0.000028 -2.191568 60.081780 2.728347 -71.830770 159.277662 105.685785 -0.000000 -0.000000 0.000003 91.004573 -1.100854 6.192654 0.000001 -0.000002 3.004810 -5.000148 8.000100 -0.000011 5.256446 -177.562283 -2.841477 -179.999991 0.000005 -1.212996 175.859831 -1.806283 -0.564726 -0.000004 -0.000001 0.053878 69.448325 6.955321 1.966766 25.456945 -7.355613 0.000001 2.329375 172.514118 -0.775264 -0.000005 -0.000004 -1.139470 -5.741899 1.918174 0.353322 -0.000002 0.000004 -0.012762 69.183860 -6.523097 -3.077215 25.456948 7.355613 -0.000001 
51.481300 -8.852328 95.824890 -4.309357 0.739456 2.825000 -2.470712 -0.343023 0.194003 -0.937544 -0.673482 0.369798 0.707562 -0.669003 0.377838 33.904410 6.418298 -3.373573 -7.641003 -8.604412 -2.147021 4.243170 -53.007548 5.849865 -65.654224 -154.515435 -87.154532 0.000001 -0.000002 0.000001 95.022719 3.064780 -5.425442 0.000000 0.000013 -3.009710 -5.000184 -7.999938 0.000029 -2.212673 60.094934 2.754349 -71.902597 159.296950 105.748820 -0.000000 0.000002 -0.000001 90.978564 -1.090800 6.184314 0.000000 -0.000005 3.004811 -5.000145 8.000103 -0.000011 5.257381 -177.562283 -2.842377 -179.999991 0.000005 -1.212996 175.861716 -1.804284 -0.564522 -0.000004 -0.000001 0.053847 69.449370 6.955294 1.966697 25.456947 -7.355613 0.000001 2.334067 172.514145 -0.775097 -0.000005 -0.000004 -1.139390 -5.737386 1.918120 0.353371 -0.000002 0.000004 -0.012735 69.183280 -6.522185 -3.079682 25.456948 7.355613 -0.000000 
51.463100 -8.845751 95.827110 -4.312438 0.738261 2.819010 -2.468885 -0.343008 0.193448 -0.933882 -0.674471 0.368517 0.711224 -0.670005 0.376567 33.890046 6.432519 -3.363720 -7.569281 -8.600206 -2.131186 4.279652 -53.031064 5.890016 -65.692124 -154.479673 -87.155304 0.000001 -0.000002 0.000001 95.024542 3.062779 -5.423425 0.000000 0.000010 -3.009701 -5.000184 -7.999936 0.000028 -2.239395 60.113403 2.787473 -71.980474 159.321307 105.825476 0.000000 0.000002 0.000001 90.951100 -1.080013 6.176971 0.000000 -0.000003 3.004810 -5.000148 8.000096 -0.000012 5.257414 -177.561300 -2.842685 -179.999991 0.000005 -1.212995 175.861785 -1.803289 -0.565446 -0.000004 -0.000001 0.053816 69.450736 6.955282 1.966608 25.456950 -7.355612 0.000000 2.338226 172.515156 -0.774732 -0.000005 -0.000005 -1.139320 -5.734673 1.917780 0.353460 -0.000001 0.000004 -0.012707 69.182768 -6.521217 -3.082332 25.456950 7.355612 0.000000 
51.465694 -8.845306 95.823997 -4.316107 0.737220 2.812129 -2.466734 -0.342979 0.193013 -0.929591 -0.675776 0.367444 0.715517 -0.671321 0.375506 33.871666 6.449648 -3.354048 -7.495774 -8.600810 -2.115033 4.315823 -53.053378 5.929934 -65.730735 -154.444511 -87.157708 0.000002 -0.000002 0.000001 95.025034 3.059835 -5.422297 0.000000 0.000015 -3.009700 -5.000185 -7.999938 0.000028 -2.271188 60.136462 2.826990 -72.063284 159.350335 105.912472 0.000001 0.000001 0.000000 90.922536 -1.068577 6.169598 0.000002 -0.000006 3.004809 -5.000145 8.000105 -0.000011 5.256647 -177.560289 -2.842537 -179.999991 0.000005 -1.211998 175.860227 -1.802291 -0.564425 -0.000005 -0.000001 0.053787 69.452321 6.955277 1.966507 25.456945 -7.355613 0.000000 2.341874 172.516180 -0.774212 -0.000005 -0.000005 -1.139240 -5.733621 1.917188 0.353585 -0.000002 0.000004 -0.012680 69.182569 -6.520190 -3.084955 25.456947 7.355612 0.000000 
51.470501 -8.843241 95.823196 -4.320285 0.736296 2.804463 -2.464312 -0.342941 0.192688 -0.924747 -0.677352 0.366569 0.720358 -0.672903 0.374648 33.849834 6.469250 -3.344548 -7.421018 -8.605593 -2.098635 4.351366 -53.074709 5.969259 -65.771088 -154.409267 -87.163623 0.000004 0.000001 0.000003 95.024419 3.056212 -5.420128 -0.000001 0.000009 -3.009700 -5.000184 -7.999938 0.000027 -2.307495 60.163038 2.872155 -72.151482 159.382533 106.010451 0.000000 0.000001 -0.000003 90.893384 -1.056647 6.164247 0.000000 -0.000006 3.004810 -5.000145 8.000102 -0.000011 5.255201 -177.559292 -2.841977 -179.999991 0.000005 -1.211998 175.857345 -1.802285 -0.564516 -0.000004 -0.000001 0.053759 69.454131 6.955279 1.966394 25.456943 -7.355614 0.000000 2.345031 172.516208 -0.773585 -0.000005 -0.000004 -1.139160 -5.734048 1.916381 0.353741 -0.000002 0.000003 -0.012653 69.182460 -6.519138 -3.087868 25.456952 7.355613 -0.000001 
